<?xml version="1.0" encoding="UTF-8"?>
<svg version="1.1" xmlns="http://www.w3.org/2000/svg" width="856" height="864">
<path d="M0 0 C0.76634766 0.15017578 1.53269531 0.30035156 2.32226562 0.45507812 C25.26012384 5.00746226 48.6698991 12.48007203 70 22 C71.06524902 22.47308594 72.13049805 22.94617188 73.22802734 23.43359375 C118.1157068 43.50883085 158.6601717 70.17034857 193.37915039 105.1184082 C195.32150484 107.07155488 197.27442958 109.0136762 199.22851562 110.95507812 C206.28087838 118.00013181 212.82890339 125.163101 219 133 C222.9508107 138.15476861 222.9508107 138.15476861 228 142 C228.268125 142.69480469 228.53625 143.38960937 228.8125 144.10546875 C230.37247322 147.90790348 232.62619989 150.97556636 235 154.3125 C240.62768769 162.37175604 245.91378049 170.58974641 251 179 C251.43812012 179.71994141 251.87624023 180.43988281 252.32763672 181.18164062 C264.61389349 201.48028882 274.13699137 222.63467533 282 245 C282.34659668 245.97018066 282.69319336 246.94036133 283.05029297 247.93994141 C295.28950209 282.35804616 301.6957777 317.50271468 303.78222656 353.90405273 C303.94340723 356.19104181 303.94340723 356.19104181 305 359 C305.09525677 361.1754489 305.1307313 363.35371759 305.1328125 365.53125 C305.13410156 366.81644531 305.13539063 368.10164063 305.13671875 369.42578125 C305.13357666 370.42859131 305.13357666 370.42859131 305.13037109 371.45166016 C305.12501943 373.49258865 305.13032396 375.53329709 305.13671875 377.57421875 C305.13542969 378.85941406 305.13414062 380.14460938 305.1328125 381.46875 C305.13112061 383.23895508 305.13112061 383.23895508 305.12939453 385.04492188 C305 388 305 388 304 391 C303.8409661 392.66468556 303.72742544 394.33389563 303.640625 396.00390625 C300.78764233 444.45170862 290.45226411 491.83815739 270 536 C269.45545166 537.20003662 269.45545166 537.20003662 268.89990234 538.42431641 C256.93990947 564.776396 242.04827309 589.36763201 224 612 C223.28457031 612.91652344 222.56914063 613.83304688 221.83203125 614.77734375 C203.66102412 637.8938621 183.37058138 659.75900116 159.89404297 677.54736328 C157.81636149 679.1408416 155.76863923 680.76838319 153.72265625 682.40234375 C139.83793226 693.44978737 125.19162246 702.87478891 109.91064453 711.86083984 C108.51793409 712.69119851 107.13469118 713.53749751 105.75732422 714.39306641 C99.37223335 718.32852321 92.8175301 721.63050134 86 724.75 C84.30810547 725.5248877 84.30810547 725.5248877 82.58203125 726.31542969 C48.37050257 741.77896471 12.85021755 752.50928666 -24.3125 757.8125 C-25.41934647 757.97061661 -25.41934647 757.97061661 -26.54855347 758.13192749 C-43.15558743 760.47421564 -59.48885575 761.21208952 -76.25146484 761.24023438 C-79.70044816 761.24986168 -83.14881402 761.28092713 -86.59765625 761.3125 C-137.66560771 761.55460391 -190.67135991 749.58893687 -237 728 C-237.94278809 727.56751953 -238.88557617 727.13503906 -239.85693359 726.68945312 C-260.16980574 717.33648689 -279.68812399 706.86605108 -298 694 C-298.71784668 693.49855469 -299.43569336 692.99710938 -300.17529297 692.48046875 C-309.56946031 685.89313196 -318.59159957 679.07150015 -327.22094727 671.50805664 C-328.56159985 670.37162038 -329.92894869 669.26656775 -331.30834961 668.17749023 C-338.97861618 662.09563598 -345.88797052 655.41892909 -352.78051758 648.48022461 C-354.6880669 646.56192991 -356.60611306 644.65459941 -358.52539062 642.74804688 C-365.14436194 636.13657477 -371.3111267 629.44340905 -377 622 C-378.04883143 620.72454862 -379.10448121 619.45466309 -380.16796875 618.19140625 C-392.48546201 603.43693381 -403.15852103 587.49715959 -413 571 C-413.38687988 570.35401855 -413.77375977 569.70803711 -414.17236328 569.04248047 C-425.29445489 550.26846376 -435.36225962 529.68527485 -442.33154297 508.97607422 C-443.09581445 506.71675597 -443.89424419 504.4705735 -444.69140625 502.22265625 C-459.25634338 460.56052955 -464.24136239 417.41234349 -464.3125 373.5 C-464.31617584 372.41886932 -464.31985168 371.33773865 -464.32363892 370.22384644 C-464.35901221 350.31208941 -463.72507945 330.19298396 -460.125 310.5625 C-459.95210449 309.57846191 -459.77920898 308.59442383 -459.60107422 307.58056641 C-445.97318173 231.50900337 -409.69797848 160.04812554 -354.73608398 105.4753418 C-352.92778392 103.67784195 -351.13054023 101.86977684 -349.33398438 100.06054688 C-342.528805 93.24752382 -335.56884142 86.96498484 -328 81 C-326.89084323 80.07758211 -325.78573786 79.15023517 -324.6875 78.21484375 C-317.64362091 72.24597527 -310.37057019 66.73563555 -302.79296875 61.46484375 C-299.36377613 59.2290702 -299.36377613 59.2290702 -297 56 C-295.3828125 55.09765625 -295.3828125 55.09765625 -293.125 54.0625 C-287.90559285 51.5384215 -282.93453659 48.6805778 -277.9375 45.75 C-193.2293144 -3.56832872 -95.96450711 -19.50392751 0 0 Z " fill="#91E3EB" transform="translate(516,78)"/>
<path d="M0 0 C0.76634766 0.15017578 1.53269531 0.30035156 2.32226562 0.45507812 C25.26012384 5.00746226 48.6698991 12.48007203 70 22 C71.06524902 22.47308594 72.13049805 22.94617188 73.22802734 23.43359375 C118.1157068 43.50883085 158.6601717 70.17034857 193.37915039 105.1184082 C195.32150484 107.07155488 197.27442958 109.0136762 199.22851562 110.95507812 C206.28087838 118.00013181 212.82890339 125.163101 219 133 C222.9508107 138.15476861 222.9508107 138.15476861 228 142 C228.268125 142.69480469 228.53625 143.38960937 228.8125 144.10546875 C230.37247322 147.90790348 232.62619989 150.97556636 235 154.3125 C240.62768769 162.37175604 245.91378049 170.58974641 251 179 C251.43812012 179.71994141 251.87624023 180.43988281 252.32763672 181.18164062 C264.61389349 201.48028882 274.13699137 222.63467533 282 245 C282.34659668 245.97018066 282.69319336 246.94036133 283.05029297 247.93994141 C295.28950209 282.35804616 301.6957777 317.50271468 303.78222656 353.90405273 C303.94340723 356.19104181 303.94340723 356.19104181 305 359 C305.09525677 361.1754489 305.1307313 363.35371759 305.1328125 365.53125 C305.13410156 366.81644531 305.13539063 368.10164063 305.13671875 369.42578125 C305.13357666 370.42859131 305.13357666 370.42859131 305.13037109 371.45166016 C305.12501943 373.49258865 305.13032396 375.53329709 305.13671875 377.57421875 C305.13542969 378.85941406 305.13414062 380.14460938 305.1328125 381.46875 C305.13112061 383.23895508 305.13112061 383.23895508 305.12939453 385.04492188 C305 388 305 388 304 391 C303.8409661 392.66468556 303.72742544 394.33389563 303.640625 396.00390625 C300.78764233 444.45170862 290.45226411 491.83815739 270 536 C269.45545166 537.20003662 269.45545166 537.20003662 268.89990234 538.42431641 C256.93990947 564.776396 242.04827309 589.36763201 224 612 C223.28457031 612.91652344 222.56914063 613.83304688 221.83203125 614.77734375 C203.66102412 637.8938621 183.37058138 659.75900116 159.89404297 677.54736328 C157.81636149 679.1408416 155.76863923 680.76838319 153.72265625 682.40234375 C139.83793226 693.44978737 125.19162246 702.87478891 109.91064453 711.86083984 C108.51793409 712.69119851 107.13469118 713.53749751 105.75732422 714.39306641 C99.37223335 718.32852321 92.8175301 721.63050134 86 724.75 C84.30810547 725.5248877 84.30810547 725.5248877 82.58203125 726.31542969 C48.37050257 741.77896471 12.85021755 752.50928666 -24.3125 757.8125 C-25.41934647 757.97061661 -25.41934647 757.97061661 -26.54855347 758.13192749 C-43.15558743 760.47421564 -59.48885575 761.21208952 -76.25146484 761.24023438 C-79.70044816 761.24986168 -83.14881402 761.28092713 -86.59765625 761.3125 C-137.66560771 761.55460391 -190.67135991 749.58893687 -237 728 C-237.94278809 727.56751953 -238.88557617 727.13503906 -239.85693359 726.68945312 C-260.16980574 717.33648689 -279.68812399 706.86605108 -298 694 C-298.71784668 693.49855469 -299.43569336 692.99710938 -300.17529297 692.48046875 C-309.56946031 685.89313196 -318.59159957 679.07150015 -327.22094727 671.50805664 C-328.56159985 670.37162038 -329.92894869 669.26656775 -331.30834961 668.17749023 C-338.97861618 662.09563598 -345.88797052 655.41892909 -352.78051758 648.48022461 C-354.6880669 646.56192991 -356.60611306 644.65459941 -358.52539062 642.74804688 C-365.14436194 636.13657477 -371.3111267 629.44340905 -377 622 C-378.04883143 620.72454862 -379.10448121 619.45466309 -380.16796875 618.19140625 C-392.48546201 603.43693381 -403.15852103 587.49715959 -413 571 C-413.38687988 570.35401855 -413.77375977 569.70803711 -414.17236328 569.04248047 C-425.29445489 550.26846376 -435.36225962 529.68527485 -442.33154297 508.97607422 C-443.09581445 506.71675597 -443.89424419 504.4705735 -444.69140625 502.22265625 C-459.25634338 460.56052955 -464.24136239 417.41234349 -464.3125 373.5 C-464.31617584 372.41886932 -464.31985168 371.33773865 -464.32363892 370.22384644 C-464.35901221 350.31208941 -463.72507945 330.19298396 -460.125 310.5625 C-459.95210449 309.57846191 -459.77920898 308.59442383 -459.60107422 307.58056641 C-445.97318173 231.50900337 -409.69797848 160.04812554 -354.73608398 105.4753418 C-352.92778392 103.67784195 -351.13054023 101.86977684 -349.33398438 100.06054688 C-342.528805 93.24752382 -335.56884142 86.96498484 -328 81 C-326.89084323 80.07758211 -325.78573786 79.15023517 -324.6875 78.21484375 C-317.64362091 72.24597527 -310.37057019 66.73563555 -302.79296875 61.46484375 C-299.36377613 59.2290702 -299.36377613 59.2290702 -297 56 C-295.3828125 55.09765625 -295.3828125 55.09765625 -293.125 54.0625 C-287.90559285 51.5384215 -282.93453659 48.6805778 -277.9375 45.75 C-193.2293144 -3.56832872 -95.96450711 -19.50392751 0 0 Z M-131.0625 75.875 C-132.7404542 76.23897284 -134.41884966 76.60091672 -136.09765625 76.9609375 C-136.91508301 77.13850586 -137.73250977 77.31607422 -138.57470703 77.49902344 C-141.65051054 78.13437162 -144.73914253 78.64595417 -147.83886719 79.14892578 C-154.52737319 80.23546799 -160.82447367 81.74017378 -167.2109375 84.046875 C-169.94097489 84.97982895 -172.62150179 85.63127363 -175.4375 86.25 C-190.21800839 89.81904665 -204.38869256 96.3256699 -218 103 C-219.06347656 103.495 -220.12695312 103.99 -221.22265625 104.5 C-237.88951465 112.44605883 -253.69410956 122.34334853 -268 134 C-269.1062205 134.84788158 -270.21571662 135.69150328 -271.328125 136.53125 C-280.81924815 143.73362905 -289.45433086 151.70872935 -298 160 C-298.95302002 160.92014893 -298.95302002 160.92014893 -299.92529297 161.85888672 C-307.48823938 169.18653275 -314.5472043 176.65627516 -321 185 C-321.78632813 185.99257813 -322.57265625 186.98515625 -323.3828125 188.0078125 C-337.36460182 205.76093292 -349.29176205 224.69360636 -359.07080078 245.06787109 C-359.98255511 246.96372599 -360.91037666 248.8510611 -361.83984375 250.73828125 C-366.30519497 259.91968282 -369.80687331 269.30933742 -373 279 C-373.21366211 279.6398584 -373.42732422 280.2797168 -373.64746094 280.93896484 C-375.19491966 285.59944701 -376.62248377 290.28733659 -378 295 C-378.2371875 295.80018555 -378.474375 296.60037109 -378.71875 297.42480469 C-380.70749369 304.23262652 -382.42995014 311.08396125 -384 318 C-384.2484668 319.09086914 -384.49693359 320.18173828 -384.75292969 321.30566406 C-388.75658581 339.83249022 -389.47646121 358.033197 -389.5 376.9375 C-389.50449158 378.04377747 -389.50898315 379.15005493 -389.51361084 380.28985596 C-389.5497329 402.17211053 -387.16280713 423.53552575 -383 445 C-382.74941646 446.35145443 -382.49941913 447.70301768 -382.25 449.0546875 C-381.0957264 455.19253923 -379.80499271 461.14692171 -377.68286133 467.02929688 C-377.00159574 468.99539478 -376.48915422 470.94432386 -376.01171875 472.96875 C-371.66834087 491.03863044 -363.72223032 508.36861081 -354.8359375 524.609375 C-353.31366412 527.42072243 -351.88440491 530.24469448 -350.5 533.125 C-340.82086214 552.61190214 -326.72943599 570.81709423 -312.03515625 586.78125 C-310.2045558 588.77699099 -308.44163517 590.81230611 -306.6875 592.875 C-298.56412625 602.16153581 -289.7067555 610.3965926 -280 618 C-278.89642621 618.88192578 -277.79359333 619.76477929 -276.69140625 620.6484375 C-240.17039152 649.80870725 -194.67219578 675.40532624 -147.9453125 682.5078125 C-144.84112397 683.02654958 -141.81124565 683.70791566 -138.75 684.4375 C-99.46923402 693.64977488 -54.40122167 693.12588659 -15.28808594 683.53125 C-12.39836635 682.86031212 -9.49968444 682.40947343 -6.5625 682 C40.44538002 674.53522935 89.09423954 645.36643928 124 614 C124.79229004 613.29230469 124.79229004 613.29230469 125.60058594 612.5703125 C135.2869282 603.89633377 144.58146518 594.91748719 153 585 C153.79792969 584.09121094 154.59585938 583.18242188 155.41796875 582.24609375 C177.40046498 557.04171076 194.69343672 528.04143371 207 497 C207.42756592 495.92588867 207.42756592 495.92588867 207.86376953 494.83007812 C211.09240643 486.65467425 213.8644603 478.48396616 216.140625 469.98828125 C217 467 217 467 218.015625 464.5625 C219.26193081 461.31814837 219.85829132 458.10180868 220.5 454.6875 C221.21139373 450.92561901 221.94043286 447.22275109 222.9296875 443.5234375 C235.11621075 395.32863959 234.66753872 331.37524223 214.88623047 285.18603516 C213.96897095 282.92346169 213.27802174 280.66368824 212.625 278.3125 C206.98659136 259.08255896 197.64971071 239.9296384 187 223 C186.48566406 222.15566406 185.97132813 221.31132812 185.44140625 220.44140625 C178.06665882 208.53923593 169.92821408 196.79354075 161 186 C160.3819751 185.24879883 160.3819751 185.24879883 159.75146484 184.48242188 C148.05806997 170.36363939 135.29368446 156.42520954 120.78125 145.16015625 C118.58989648 143.45816398 116.46298938 141.72224481 114.34375 139.93359375 C105.90712937 132.85019213 97.27847884 126.71137158 87.80957031 121.08935547 C86.20525684 120.12356395 84.62769311 119.11364263 83.0546875 118.09765625 C66.53531654 107.45233954 48.60492838 98.31543441 30 92 C27.87213842 91.15298714 25.74706504 90.29893234 23.625 89.4375 C17.58506971 87.09116117 11.43578277 85.35252335 5.17822266 83.69897461 C2.20248869 82.9101585 -0.63678138 82.15492737 -3.47265625 80.9453125 C-7.20173302 79.55051099 -11.00746298 79.11829439 -14.9375 78.5625 C-20.7153152 77.71047702 -26.37837652 76.73945587 -32.0625 75.375 C-37.04106422 74.27600538 -41.91269474 73.67610248 -46.99609375 73.421875 C-47.76763794 73.3815213 -48.53918213 73.3411676 -49.33410645 73.29959106 C-58.56005485 72.86351888 -67.78802917 72.84987774 -77.02246094 72.86962891 C-79.9967966 72.87499422 -82.97098133 72.86964293 -85.9453125 72.86328125 C-108.65840003 72.66050946 -108.65840003 72.66050946 -131.0625 75.875 Z " fill="#FBFBFB" transform="translate(516,78)"/>
<path d="M0 0 C2.97433566 0.00536532 5.9485204 0.00001403 8.92285156 -0.00634766 C41.08942046 -0.02283513 41.08942046 -0.02283513 56.35253906 3.56787109 C58.29729416 4.00654745 60.24260951 4.44274749 62.18847656 4.87646484 C63.60809692 5.19599121 63.60809692 5.19599121 65.05639648 5.52197266 C68.10724538 6.15738556 71.16061048 6.66050298 74.23925781 7.14208984 C78.85802511 7.88704023 83.01136619 8.9358441 87.41503906 10.50537109 C92.07460246 12.13729467 96.73894417 13.67827088 101.47753906 15.06787109 C107.58945052 16.927692 113.48857022 19.21432447 119.38769531 21.64990234 C121.5107671 22.52546732 123.64114302 23.38418346 125.78613281 24.20458984 C143.89324121 31.2739834 160.83613792 41.39700087 176.97753906 52.13037109 C177.93660156 52.76458984 178.89566406 53.39880859 179.88378906 54.05224609 C203.60481274 70.22567133 226.51067012 90.32953357 243.97753906 113.13037109 C244.89212891 114.22671875 244.89212891 114.22671875 245.82519531 115.34521484 C265.4464944 138.91494783 280.95253768 166.58959287 291.97753906 195.13037109 C292.70549544 196.88087489 293.43448137 198.63095134 294.16503906 200.38037109 C296.47242284 206.17841238 298.20676985 212.15150013 299.97753906 218.13037109 C300.20948975 218.89406006 300.44144043 219.65774902 300.68041992 220.44458008 C313.29213282 262.03468843 315.69653509 306.56594582 309.72753906 349.56787109 C309.62539093 350.30420776 309.5232428 351.04054443 309.41799927 351.79919434 C308.1139712 360.89716034 306.20456703 369.7416918 303.85961914 378.62670898 C303.06377593 381.78783436 302.43903611 384.91472364 301.91503906 388.13037109 C301.25899415 391.97536474 300.27604934 395.35461061 298.80566406 398.95849609 C297.82841313 401.52147497 297.10432683 404.11727949 296.35253906 406.75537109 C284.07165392 447.10018008 261.2250543 484.7742337 232.45800781 515.46630859 C230.42677858 517.64788078 228.4695234 519.85983989 226.54003906 522.13037109 C218.46528623 531.39995609 209.60158452 539.50376903 199.97753906 547.13037109 C198.2690634 548.56770193 196.56073308 550.00520554 194.85253906 551.44287109 C182.38096771 561.61145341 169.03012542 570.32662617 154.97753906 578.13037109 C154.15640625 578.59411133 153.33527344 579.05785156 152.48925781 579.53564453 C131.96656904 591.05081136 109.84295056 600.16230855 87.09472656 606.26318359 C84.02837505 607.04945608 84.02837505 607.04945608 81.39941406 608.19287109 C78.68833603 609.24232065 76.23447959 609.63277192 73.35253906 610.00537109 C69.49510925 610.54661403 65.70737459 611.16044873 61.92285156 612.07568359 C36.49768678 618.18642823 9.97378995 617.55156533 -16.02246094 617.13037109 C-16.91884277 617.12166992 -17.81522461 617.11296875 -18.73876953 617.10400391 C-31.88333626 616.93959052 -50.2035476 616.03982776 -62.02246094 610.13037109 C-63.68548045 609.85716075 -65.35317206 609.61221677 -67.02246094 609.38037109 C-87.89418147 605.97223556 -107.75120579 597.93827203 -126.85791016 589.12011719 C-128.93609158 588.16986369 -131.02540947 587.25053173 -133.12011719 586.33740234 C-149.77708908 578.95180147 -165.59104234 569.23960096 -180.02246094 558.13037109 C-181.30458337 557.18401003 -182.5886028 556.24021615 -183.87402344 555.29833984 C-191.62970331 549.59379383 -198.97093587 543.69908904 -206.02246094 537.13037109 C-207.4139076 535.91698891 -208.80954733 534.70839307 -210.20996094 533.50537109 C-215.95138122 528.49027506 -221.14314042 523.10063872 -226.10449219 517.31787109 C-227.42543487 515.81129695 -228.77942482 514.33327567 -230.15917969 512.88037109 C-242.46083971 499.86704479 -252.88380325 485.14625369 -262.03369141 469.78173828 C-262.89848467 468.33742677 -263.78851609 466.90828781 -264.68261719 465.48193359 C-269.0000392 458.55103213 -272.54042249 451.25038236 -276.12792969 443.92529297 C-276.8563473 442.46368646 -277.62165065 441.02050834 -278.39746094 439.58349609 C-282.29635417 432.35002312 -284.74487005 424.60073342 -287.38574219 416.84521484 C-288.56335205 413.40260808 -289.83858512 410.03858133 -291.27246094 406.69287109 C-293.15370525 402.14586357 -294.20463066 397.5047551 -295.21386719 392.69677734 C-295.8736679 389.78664181 -296.63279414 386.96177426 -297.45214844 384.09521484 C-299.26616078 377.51166372 -300.44441028 370.8585406 -301.58496094 364.13037109 C-301.79314453 362.95603516 -302.00132812 361.78169922 -302.21582031 360.57177734 C-305.41122519 341.96029688 -306.49796278 323.56929584 -306.52246094 304.69287109 C-306.52480743 303.53450745 -306.52715393 302.3761438 -306.52957153 301.18267822 C-306.51242089 280.60438562 -304.62795748 261.16503937 -300.02246094 241.13037109 C-299.73918945 239.87643555 -299.45591797 238.6225 -299.1640625 237.33056641 C-294.60555033 217.58745698 -288.41285666 198.51414289 -279.93164062 180.10888672 C-278.99231803 178.06477547 -278.07359746 176.01211604 -277.15527344 173.95849609 C-266.05833764 149.44678544 -250.70864034 125.02232672 -232.18261719 105.43115234 C-230.33001542 103.45794721 -228.56173398 101.44603534 -226.79589844 99.39599609 C-222.90614088 94.93358987 -218.78084839 90.74109848 -214.58496094 86.56787109 C-213.87275391 85.85179687 -213.16054687 85.13572266 -212.42675781 84.39794922 C-181.28343846 53.31120265 -142.13411875 30.45032646 -100.83496094 15.75537109 C-99.82961304 15.39741455 -99.82961304 15.39741455 -98.80395508 15.03222656 C-94.89072365 13.67668516 -90.97027041 12.57675737 -86.94458008 11.60839844 C-84.04345804 10.88689495 -81.19556867 9.99701675 -78.33496094 9.13037109 C-72.79170986 7.53485332 -67.39181797 6.46679106 -61.68261719 5.69677734 C-58.88168726 5.26333568 -56.16001906 4.7555501 -53.39355469 4.15771484 C-52.14179443 3.88991211 -52.14179443 3.88991211 -50.86474609 3.61669922 C-49.25912105 3.26836443 -47.6555843 2.91014047 -46.05517578 2.53857422 C-31.07692604 -0.67614853 -15.2384481 -0.03259293 0 0 Z M-60.53808594 34.20068359 C-63.42972189 34.97221875 -66.18927831 35.50152245 -69.13574219 35.97802734 C-75.65653011 37.12646793 -81.73556141 39.22380114 -87.95996094 41.44287109 C-89.04986328 41.82121094 -90.13976562 42.19955078 -91.26269531 42.58935547 C-101.33844504 46.12754209 -111.24531521 50.04140907 -120.77246094 54.88037109 C-121.44019531 55.21834717 -122.10792969 55.55632324 -122.79589844 55.90454102 C-136.20156543 62.75329294 -148.79672337 70.3400461 -161.02246094 79.13037109 C-162.07175781 79.88189453 -163.12105469 80.63341797 -164.20214844 81.40771484 C-176.49083406 90.42050417 -187.5419909 100.4621952 -198.33496094 111.19287109 C-199.25390137 112.10254639 -200.1728418 113.01222168 -201.11962891 113.94946289 C-207.17753069 120.03526363 -212.70415812 126.39179777 -218.02246094 133.13037109 C-218.50996826 133.73824463 -218.99747559 134.34611816 -219.49975586 134.97241211 C-230.53436508 148.78036759 -239.85087007 163.46687381 -248.02246094 179.13037109 C-248.46734863 179.98066895 -248.91223633 180.8309668 -249.37060547 181.70703125 C-278.28513066 237.69746707 -286.92520016 306.67264339 -272.02246094 368.13037109 C-271.68142334 369.54044434 -271.68142334 369.54044434 -271.33349609 370.97900391 C-266.73440724 389.72652886 -260.78694273 407.45897199 -253.02246094 425.13037109 C-252.71469727 425.84451172 -252.40693359 426.55865234 -252.08984375 427.29443359 C-240.96616209 452.98111902 -224.25170552 476.0481123 -205.37011719 496.56396484 C-203.31921995 498.80596065 -201.3176856 501.07828138 -199.33496094 503.38037109 C-189.48468281 514.68057334 -177.82167335 523.96196176 -166.02246094 533.13037109 C-165.47380371 533.55721191 -164.92514648 533.98405273 -164.35986328 534.42382812 C-142.84093937 550.95478951 -117.81606597 563.98620748 -92.06103516 572.44042969 C-90.01038806 573.13445708 -87.98785718 573.88184654 -85.96386719 574.64990234 C-47.25571499 589.24500619 -2.85441035 592.82038973 37.97753906 587.13037109 C38.89164551 587.00678223 39.80575195 586.88319336 40.74755859 586.75585938 C64.50015421 583.44518335 89.72720814 578.25702742 111.42675781 567.81005859 C113.96025448 566.61159483 116.48014925 565.47621718 119.05957031 564.38818359 C141.63019458 554.82289995 162.16843079 541.8197722 180.97753906 526.13037109 C182.41033203 524.97408203 182.41033203 524.97408203 183.87207031 523.79443359 C197.19996246 512.92376717 209.42751154 500.71377 219.97753906 487.13037109 C220.91317062 485.99234036 221.85220329 484.85710049 222.79394531 483.72412109 C247.61872259 453.68994745 265.1516214 417.19117436 275.03222656 379.59521484 C275.97753906 376.13037109 275.97753906 376.13037109 276.97753906 374.13037109 C277.30135414 372.07267347 277.58641653 370.00882233 277.85253906 367.94287109 C278.54182515 362.88124786 279.40197588 357.94043737 280.47753906 352.94287109 C283.68427903 337.20896665 284.35335113 321.39978506 284.29003906 305.38037109 C284.28830185 304.00705124 284.28830185 304.00705124 284.28652954 302.60598755 C284.25358655 289.39987627 283.75001843 276.48137427 281.39648438 263.45458984 C280.97788055 261.1322656 280.60911564 258.80646482 280.25097656 256.47412109 C278.82954341 247.48380146 276.66514658 238.82919238 273.97753906 230.13037109 C273.5328125 228.58349609 273.5328125 228.58349609 273.07910156 227.00537109 C269.18149839 213.68023206 264.01837784 200.62803455 257.97753906 188.13037109 C257.17703125 186.46941406 257.17703125 186.46941406 256.36035156 184.77490234 C245.02492688 161.67582583 230.530034 139.97549163 212.97753906 121.13037109 C211.78513784 119.75961926 210.59740023 118.38479246 209.41503906 117.00537109 C192.48691771 97.6199418 170.83003087 81.2981461 148.76269531 68.19726562 C146.81424014 67.03277587 144.88055721 65.84560778 142.94628906 64.65771484 C134.72465693 59.65698682 126.47817214 55.33397888 117.59082031 51.64208984 C114.59960755 50.3906311 111.70358309 49.04814291 108.79003906 47.63037109 C97.30888905 42.38482298 84.75595227 38.39610941 72.40014648 35.86328125 C69.32287355 35.20432031 66.2738384 34.46711309 63.22035217 33.70684814 C54.04506646 31.45066849 44.92654871 29.91886034 35.54003906 28.88037109 C34.79830444 28.79698486 34.05656982 28.71359863 33.2923584 28.62768555 C2.26549111 25.21842871 -30.34310262 25.46003053 -60.53808594 34.20068359 Z " fill="#09196B" transform="translate(433.0224609375,150.86962890625)"/>
<path d="M0 0 C0.76634766 0.15017578 1.53269531 0.30035156 2.32226562 0.45507812 C25.26012384 5.00746226 48.6698991 12.48007203 70 22 C71.06524902 22.47308594 72.13049805 22.94617188 73.22802734 23.43359375 C118.1157068 43.50883085 158.6601717 70.17034857 193.37915039 105.1184082 C195.32150484 107.07155488 197.27442958 109.0136762 199.22851562 110.95507812 C206.28087838 118.00013181 212.82890339 125.163101 219 133 C222.9508107 138.15476861 222.9508107 138.15476861 228 142 C228.268125 142.69480469 228.53625 143.38960937 228.8125 144.10546875 C230.37247322 147.90790348 232.62619989 150.97556636 235 154.3125 C240.62768769 162.37175604 245.91378049 170.58974641 251 179 C251.43812012 179.71994141 251.87624023 180.43988281 252.32763672 181.18164062 C264.61389349 201.48028882 274.13699137 222.63467533 282 245 C282.34659668 245.97018066 282.69319336 246.94036133 283.05029297 247.93994141 C295.28950209 282.35804616 301.6957777 317.50271468 303.78222656 353.90405273 C303.94340723 356.19104181 303.94340723 356.19104181 305 359 C305.09525677 361.1754489 305.1307313 363.35371759 305.1328125 365.53125 C305.13410156 366.81644531 305.13539063 368.10164063 305.13671875 369.42578125 C305.13357666 370.42859131 305.13357666 370.42859131 305.13037109 371.45166016 C305.12501943 373.49258865 305.13032396 375.53329709 305.13671875 377.57421875 C305.13542969 378.85941406 305.13414062 380.14460938 305.1328125 381.46875 C305.13112061 383.23895508 305.13112061 383.23895508 305.12939453 385.04492188 C305 388 305 388 304 391 C303.8409661 392.66468556 303.72742544 394.33389563 303.640625 396.00390625 C300.78764233 444.45170862 290.45226411 491.83815739 270 536 C269.45545166 537.20003662 269.45545166 537.20003662 268.89990234 538.42431641 C256.93990947 564.776396 242.04827309 589.36763201 224 612 C223.28457031 612.91652344 222.56914063 613.83304688 221.83203125 614.77734375 C203.66102412 637.8938621 183.37058138 659.75900116 159.89404297 677.54736328 C157.81636149 679.1408416 155.76863923 680.76838319 153.72265625 682.40234375 C139.83793226 693.44978737 125.19162246 702.87478891 109.91064453 711.86083984 C108.51793409 712.69119851 107.13469118 713.53749751 105.75732422 714.39306641 C99.37223335 718.32852321 92.8175301 721.63050134 86 724.75 C84.30810547 725.5248877 84.30810547 725.5248877 82.58203125 726.31542969 C48.37050257 741.77896471 12.85021755 752.50928666 -24.3125 757.8125 C-25.41934647 757.97061661 -25.41934647 757.97061661 -26.54855347 758.13192749 C-43.15558743 760.47421564 -59.48885575 761.21208952 -76.25146484 761.24023438 C-79.70044816 761.24986168 -83.14881402 761.28092713 -86.59765625 761.3125 C-137.66560771 761.55460391 -190.67135991 749.58893687 -237 728 C-237.94278809 727.56751953 -238.88557617 727.13503906 -239.85693359 726.68945312 C-260.16980574 717.33648689 -279.68812399 706.86605108 -298 694 C-298.71784668 693.49855469 -299.43569336 692.99710938 -300.17529297 692.48046875 C-309.56946031 685.89313196 -318.59159957 679.07150015 -327.22094727 671.50805664 C-328.56159985 670.37162038 -329.92894869 669.26656775 -331.30834961 668.17749023 C-338.97861618 662.09563598 -345.88797052 655.41892909 -352.78051758 648.48022461 C-354.6880669 646.56192991 -356.60611306 644.65459941 -358.52539062 642.74804688 C-365.14436194 636.13657477 -371.3111267 629.44340905 -377 622 C-378.04883143 620.72454862 -379.10448121 619.45466309 -380.16796875 618.19140625 C-392.48546201 603.43693381 -403.15852103 587.49715959 -413 571 C-413.38687988 570.35401855 -413.77375977 569.70803711 -414.17236328 569.04248047 C-425.29445489 550.26846376 -435.36225962 529.68527485 -442.33154297 508.97607422 C-443.09581445 506.71675597 -443.89424419 504.4705735 -444.69140625 502.22265625 C-459.25634338 460.56052955 -464.24136239 417.41234349 -464.3125 373.5 C-464.31617584 372.41886932 -464.31985168 371.33773865 -464.32363892 370.22384644 C-464.35901221 350.31208941 -463.72507945 330.19298396 -460.125 310.5625 C-459.95210449 309.57846191 -459.77920898 308.59442383 -459.60107422 307.58056641 C-445.97318173 231.50900337 -409.69797848 160.04812554 -354.73608398 105.4753418 C-352.92778392 103.67784195 -351.13054023 101.86977684 -349.33398438 100.06054688 C-342.528805 93.24752382 -335.56884142 86.96498484 -328 81 C-326.89084323 80.07758211 -325.78573786 79.15023517 -324.6875 78.21484375 C-317.64362091 72.24597527 -310.37057019 66.73563555 -302.79296875 61.46484375 C-299.36377613 59.2290702 -299.36377613 59.2290702 -297 56 C-295.3828125 55.09765625 -295.3828125 55.09765625 -293.125 54.0625 C-287.90559285 51.5384215 -282.93453659 48.6805778 -277.9375 45.75 C-193.2293144 -3.56832872 -95.96450711 -19.50392751 0 0 Z M-145.39160156 11.4765625 C-147.95209431 11.99038658 -150.516911 12.46841663 -153.0859375 12.9375 C-165.5889319 15.26326939 -177.78711621 18.47172747 -190 22 C-191.07411133 22.30309082 -191.07411133 22.30309082 -192.16992188 22.61230469 C-209.69951032 27.58044658 -226.70749818 34.88423253 -243 43 C-243.91120605 43.45358887 -244.82241211 43.90717773 -245.76123047 44.37451172 C-264.13381995 53.58582921 -281.55384069 63.64570808 -298 76 C-299.72886442 77.22959175 -301.4580427 78.4587423 -303.1875 79.6875 C-326.84450545 96.95072019 -350.20684121 117.6871908 -368 141 C-368.87132083 142.09564462 -369.74518326 143.1892711 -370.62109375 144.28125 C-397.58454644 177.99145926 -418.4988556 215.66785091 -432.5625 256.5 C-432.97999512 257.71002686 -433.39749023 258.92005371 -433.82763672 260.16674805 C-435.72694415 265.80120241 -437.43478746 271.36544033 -438.62133789 277.19335938 C-439.07433105 279.35464204 -439.72633752 281.4107091 -440.4375 283.5 C-442.26488071 289.4321002 -443.23084136 295.49603822 -444.24609375 301.60546875 C-444.90866884 305.57487233 -445.73488637 309.49905725 -446.5625 313.4375 C-454.51755753 355.28285778 -452.41284923 403.35173635 -445.125 445.125 C-445.00211609 445.83211121 -444.87923218 446.53922241 -444.75262451 447.26776123 C-443.31053918 455.41631994 -441.47131598 463.30950661 -438.85668945 471.17114258 C-438.00969704 473.96797961 -437.48699863 476.67427138 -437.0625 479.5625 C-436.20689147 484.8107416 -434.35842186 489.3173524 -432.22265625 494.16796875 C-431.18297982 496.57616494 -430.29829528 498.94225704 -429.5 501.4375 C-423.40368215 520.25946493 -415.42744361 538.92370394 -405.25537109 555.90136719 C-403.83770009 558.2713205 -402.44455754 560.65498328 -401.05078125 563.0390625 C-396.33603928 571.0548675 -391.60203315 578.95930402 -385.9765625 586.37890625 C-384.08554464 588.88656037 -382.2874248 591.44708615 -380.49633789 594.02661133 C-375.75494794 600.82059125 -370.62238958 607.13716193 -365.15234375 613.35546875 C-362.62241353 616.23355451 -360.2322195 619.20607661 -357.83984375 622.19921875 C-353.23624867 627.84551873 -348.26528416 633.04002768 -343.09863281 638.16210938 C-341.62587477 639.62413161 -340.16414955 641.09657488 -338.703125 642.5703125 C-332.46710183 648.8150759 -325.9071032 654.50239509 -319 660 C-317.92597459 660.89899023 -316.85588555 661.80274623 -315.79296875 662.71484375 C-305.24356624 671.71425909 -293.98531794 679.5326486 -282.26953125 686.9296875 C-280.3172626 688.16589107 -278.37368824 689.41626233 -276.44921875 690.6953125 C-256.55684115 703.82999245 -234.41813971 714.92115707 -212 723 C-210.46925985 723.57994449 -208.93937638 724.16215301 -207.41015625 724.74609375 C-199.53398353 727.73395698 -191.78807833 730.52793384 -183.5546875 732.38671875 C-181.12537766 732.96990169 -178.84783721 733.7144378 -176.5 734.5625 C-172.23773061 736.0390719 -168.00257805 736.71303974 -163.55004883 737.37817383 C-160.45242784 737.92075279 -157.43417176 738.60482485 -154.38679504 739.3760376 C-144.11709497 741.95765085 -133.81961808 743.50757333 -123.3125 744.75 C-122.41612823 744.85805969 -121.51975647 744.96611938 -120.59622192 745.07745361 C-101.39333257 747.34682252 -82.30964348 747.72319291 -63 747 C-62.30904236 746.97516541 -61.61808472 746.95033081 -60.90618896 746.92474365 C-49.40692683 746.47690343 -38.12045001 745.11235593 -26.75 743.375 C-25.88448517 743.24405945 -25.01897034 743.1131189 -24.12722778 742.97821045 C5.48175286 738.45776057 33.31280096 730.40671122 61 719 C62.62467719 718.37416133 64.24965058 717.74909076 65.875 717.125 C86.75275435 708.71208912 106.3737878 697.57516252 125 685 C125.89589844 684.39800781 126.79179688 683.79601562 127.71484375 683.17578125 C130.17210426 681.48718127 132.5900891 679.75558791 135 678 C135.57008789 677.5870166 136.14017578 677.1740332 136.72753906 676.74853516 C178.63063595 646.28234195 214.6870371 607.20569969 240.14355469 562.00390625 C242.00349641 558.70631954 243.93526469 555.48542657 246 552.3125 C248.25843455 549.21687639 248.25843455 549.21687639 248 546 C248.66 546 249.32 546 250 546 C258.62372901 526.24701606 267.07865572 506.74681011 273.35888672 486.1015625 C273.7786965 484.72543053 274.2020662 483.35037834 274.62939453 481.9765625 C280.23658787 463.94937016 284.05604289 445.79784954 286.75 427.125 C286.85691162 426.39363831 286.96382324 425.66227661 287.07397461 424.90875244 C289.47615883 408.31476573 290.18674435 391.84435645 290.18530273 375.09277344 C290.18748653 372.26742404 290.20571856 369.44246828 290.22460938 366.6171875 C290.26041039 355.00427346 289.61338775 343.63036162 288.24801636 332.09851074 C288.03166233 330.26790064 287.83190852 328.43534383 287.63500977 326.60253906 C286.34742845 314.65524094 284.33083678 303.14213232 281.18359375 291.54296875 C280.30465649 288.30071409 279.59815996 285.06145479 278.96875 281.76171875 C278.28384214 278.22422614 277.41308053 274.97704324 276.0625 271.625 C274.65778963 267.95232088 273.58714621 264.40257066 272.75 260.5625 C270.76272069 252.27148524 267.38754367 244.51057045 264.11035156 236.66308594 C263.02682889 234.06434687 261.96206574 231.45849446 260.8984375 228.8515625 C256.90360814 219.18174978 252.50616622 209.78820699 247.6875 200.5 C247.18379883 199.52635498 246.68009766 198.55270996 246.16113281 197.54956055 C243.75090106 192.9854961 241.30611753 188.98097451 238 185 C236.99863105 183.29707316 235.99901531 181.59266033 235.04052734 179.86523438 C229.25810551 169.49974802 222.69908737 160.03553273 215 151 C213.88715913 149.5692046 212.78267544 148.13186181 211.6875 146.6875 C203.09041051 135.5983494 193.68469982 125.35352495 183.73608398 115.4753418 C181.92778392 113.67784195 180.13054023 111.86977684 178.33398438 110.06054688 C171.5310872 103.2491089 164.58929055 96.93668122 157 91 C155.57504865 89.85084568 154.15053961 88.70114258 152.7265625 87.55078125 C130.57251521 69.95683992 106.57681421 55.09016605 81 43 C79.63222412 42.35200439 79.63222412 42.35200439 78.23681641 41.69091797 C60.2618364 33.21712427 42.52995595 26.2482963 23.45751953 20.72021484 C21.08924122 20.02615355 18.72950752 19.30882528 16.37109375 18.58203125 C15.6330249 18.35717041 14.89495605 18.13230957 14.13452148 17.90063477 C12.15127077 17.29610964 10.1693293 16.68729384 8.1875 16.078125 C3.93978728 14.89701281 -0.36177523 14.21674746 -4.71240234 13.52685547 C-8.16657625 12.97330525 -11.60800328 12.36646064 -15.05078125 11.74609375 C-16.24380859 11.53146484 -17.43683594 11.31683594 -18.66601562 11.09570312 C-21.11660305 10.65336356 -23.56712288 10.21064937 -26.01757812 9.76757812 C-64.39418345 2.86771046 -107.20556249 3.75260003 -145.39160156 11.4765625 Z " fill="#07165E" transform="translate(516,78)"/>
<path d="M0 0 C59.07 0 118.14 0 179 0 C179 59.07 179 118.14 179 179 C173.06 179 167.12 179 161 179 C161 177.02 161 175.04 161 173 C113.81 173 66.62 173 18 173 C18 174.98 18 176.96 18 179 C12.06 179 6.12 179 0 179 C0 119.93 0 60.86 0 0 Z " fill="#8FDFE9" transform="translate(343,516)"/>
<path d="M0 0 C6.27 0 12.54 0 19 0 C19 3.96 19 7.92 19 12 C46.72 12 74.44 12 103 12 C103 8.04 103 4.08 103 0 C109.27 0 115.54 0 122 0 C122 3.96 122 7.92 122 12 C132.56 12 143.12 12 154 12 C154 17.28 154 22.56 154 28 C143.44 28 132.88 28 122 28 C122 52.09 122 76.18 122 101 C132.89 101 143.78 101 155 101 C155 105.95 155 110.9 155 116 C141.47 116 127.94 116 114 116 C114 116.66 114 117.32 114 118 C114.82951172 118.37125 114.82951172 118.37125 115.67578125 118.75 C118.44058336 120.2369524 120.72320389 122.0535884 123.1875 124 C134.17558615 132.44396962 146.50325107 139.07668548 159 145 C157.38325319 148.42946293 155.42402323 151.56263052 153.375 154.75 C152.74335937 155.73484375 152.11171875 156.7196875 151.4609375 157.734375 C150.97882813 158.48203125 150.49671875 159.2296875 150 160 C145.34684153 159.41279453 141.69291043 157.4253451 137.6875 155.125 C136.98963379 154.72643799 136.29176758 154.32787598 135.57275391 153.91723633 C123.4896008 146.90055663 112.44296766 138.8901714 101.98828125 129.62890625 C100.11395851 127.97999226 98.20503593 126.36877142 96.25 124.81640625 C93.72648429 122.77919305 91.8760145 120.6403167 90 118 C90 117.34 90 116.68 90 116 C82.55826055 115.94519492 75.11775952 115.93375354 67.67590237 115.97665405 C64.21960118 115.99523797 60.76459749 115.99925875 57.30834961 115.96923828 C53.32869599 115.93532509 49.35076993 115.96611666 45.37109375 116 C43.52226845 115.97087524 43.52226845 115.97087524 41.63609314 115.94116211 C35.24945551 115.95186214 35.24945551 115.95186214 29.71868896 118.74946594 C27.96503936 120.75247109 26.49052298 122.79858231 25 125 C23.20680791 126.84009294 21.30406874 128.48358193 19.375 130.1875 C15.78271759 133.37320603 12.40582043 136.59417957 9 140 C23.52 140 38.04 140 53 140 C53 134.72 53 129.44 53 124 C58.94 124 64.88 124 71 124 C71 129.28 71 134.56 71 140 C84.86 140 98.72 140 113 140 C113 145.28 113 150.56 113 156 C99.14 156 85.28 156 71 156 C71 162.6 71 169.2 71 176 C97.4 176 123.8 176 151 176 C151 181.28 151 186.56 151 192 C92.92 192 34.84 192 -25 192 C-25 186.72 -25 181.44 -25 176 C0.74 176 26.48 176 53 176 C53 169.4 53 162.8 53 156 C38.15 156 23.3 156 8 156 C8 151.05 8 146.1 8 141 C3.85664808 143.30186218 -0.15062456 145.72886501 -4.125 148.3125 C-20.85024351 159 -20.85024351 159 -27 159 C-27.91145833 157.14453125 -28.82291667 155.2890625 -29.734375 153.43359375 C-31.39846622 150.23381341 -33.19756651 147.1239656 -35 144 C-34.3608667 143.64808594 -33.7217334 143.29617188 -33.06323242 142.93359375 C-19.46513013 135.42036944 -6.95092772 127.95910644 5 118 C-13.315 117.505 -13.315 117.505 -32 117 C-32 111.72 -32 106.44 -32 101 C-21.11 101 -10.22 101 1 101 C1 76.58 1 52.16 1 27 C-9.23 27 -19.46 27 -30 27 C-30 22.05 -30 17.1 -30 12 C-20.1 12 -10.2 12 0 12 C0 8.04 0 4.08 0 0 Z " fill="#030405" transform="translate(370,228)"/>
<path d="M0 0 C59.07 0 118.14 0 179 0 C179 59.07 179 118.14 179 179 C173.06 179 167.12 179 161 179 C161 177.02 161 175.04 161 173 C113.81 173 66.62 173 18 173 C18 174.98 18 176.96 18 179 C12.06 179 6.12 179 0 179 C0 119.93 0 60.86 0 0 Z M18 16 C18 62.2 18 108.4 18 156 C65.19 156 112.38 156 161 156 C161 109.8 161 63.6 161 16 C113.81 16 66.62 16 18 16 Z " fill="#040606" transform="translate(343,516)"/>
<path d="M0 0 C5.94 0 11.88 0 18 0 C18 8.25 18 16.5 18 25 C34.83 25 51.66 25 69 25 C69 30.28 69 35.56 69 41 C52.5 41 36 41 19 41 C22.89843622 53.2015886 22.89843622 53.2015886 28.1875 64.5625 C28.57204346 65.26810059 28.95658691 65.97370117 29.3527832 66.70068359 C39.38267145 84.69578076 54.73728403 105.29030307 74 114 C72.42219077 117.71045247 70.09296752 120.29906384 67.375 123.25 C66.55773437 124.14203125 65.74046875 125.0340625 64.8984375 125.953125 C64.27195312 126.62859375 63.64546875 127.3040625 63 128 C51.24019891 123.84948197 40.62695216 113.67198109 33 104 C32.19691406 102.99839844 31.39382813 101.99679687 30.56640625 100.96484375 C25.5119142 94.5831576 20.97844741 88.1187056 17 81 C16.51402344 80.17113281 16.02804687 79.34226562 15.52734375 78.48828125 C12 72.38666435 12 72.38666435 12 69 C11.34 69 10.68 69 10 69 C9.78472656 69.79921875 9.56945312 70.5984375 9.34765625 71.421875 C7.59010935 76.08828938 5.11076263 80.05613558 2.4375 84.25 C1.9010083 85.0953833 1.3645166 85.9407666 0.81176758 86.81176758 C-3.29546618 93.16309065 -7.71746034 98.58307088 -13 104 C-14.08898639 105.30781344 -15.17247259 106.62022932 -16.25 107.9375 C-24.1039226 116.90042556 -33.33893082 123.74053921 -44 129 C-47.96 124.71 -51.92 120.42 -56 116 C-53.1244006 113.1244006 -51.33851847 111.44335392 -48.0625 109.4375 C-33.59511054 99.96707072 -21.84206849 87.84722038 -13 73 C-12.60538574 72.41549072 -12.21077148 71.83098145 -11.80419922 71.22875977 C-8.42277284 66.1439224 -6.4650603 61.15384785 -4.75 55.3125 C-4.36714844 54.07016602 -4.36714844 54.07016602 -3.9765625 52.80273438 C-2.77732113 48.86101735 -1.81114658 45.05573289 -1 41 C-17.83 41 -34.66 41 -52 41 C-52 35.72 -52 30.44 -52 25 C-34.84 25 -17.68 25 0 25 C0 16.75 0 8.5 0 0 Z " fill="#030505" transform="translate(423,539)"/>
<path d="M0 0 C5.94 0 11.88 0 18 0 C18 5.28 18 10.56 18 16 C31.86 16 45.72 16 60 16 C60 21.28 60 26.56 60 32 C46.14 32 32.28 32 18 32 C18 38.6 18 45.2 18 52 C44.4 52 70.8 52 98 52 C98 57.28 98 62.56 98 68 C39.92 68 -18.16 68 -78 68 C-78 62.72 -78 57.44 -78 52 C-52.26 52 -26.52 52 0 52 C0 45.4 0 38.8 0 32 C-14.85 32 -29.7 32 -45 32 C-45 27.05 -45 22.1 -45 17 C-30.15 17 -15.3 17 0 17 C0 11.39 0 5.78 0 0 Z " fill="#030505" transform="translate(423,352)"/>
<path d="M0 0 C2.4087677 -0.40786743 2.4087677 -0.40786743 5.47192383 -0.45166016 C6.61683792 -0.4740274 7.76175201 -0.49639465 8.94136047 -0.5194397 C10.80536751 -0.52915298 10.80536751 -0.52915298 12.70703125 -0.5390625 C13.97971359 -0.55141937 15.25239594 -0.56377625 16.56364441 -0.57650757 C19.26158301 -0.59611406 21.95858324 -0.60853924 24.65649414 -0.61083984 C28.10739188 -0.61611567 31.55592326 -0.6673832 35.00618458 -0.73035622 C38.30217499 -0.7811568 41.59820156 -0.78185348 44.89453125 -0.7890625 C46.74942924 -0.82913925 46.74942924 -0.82913925 48.64179993 -0.87002563 C57.03774705 -0.80344432 57.03774705 -0.80344432 59.82887268 1.52703857 C61.08449156 3.29838256 62.01460711 5.07129783 63 7 C65.56430061 9.42902535 65.56430061 9.42902535 68.3125 11.5 C69.26382813 12.2734375 70.21515625 13.046875 71.1953125 13.84375 C73.88411106 15.98846213 73.88411106 15.98846213 76.4921875 17.53125 C79.03316069 19.23126053 80.43977436 20.34717937 82 23 C82.94786942 28.62141169 82.45755879 34.35041992 82 40 C81.67 40 81.34 40 81 40 C81 34.72 81 29.44 81 24 C67.14 24 53.28 24 39 24 C39 18.72 39 13.44 39 8 C33.06 8 27.12 8 21 8 C21 13.28 21 18.56 21 24 C6.48 24 -8.04 24 -23 24 C-20.92309128 19.84618256 -19.46407383 18.5292828 -15.875 15.75 C-9.99289064 11.06595497 -4.19734334 6.29601501 0 0 Z " fill="#8EDCE5" transform="translate(402,344)"/>
<path d="M0 0 C27.72 0 55.44 0 84 0 C84 5.61 84 11.22 84 17 C56.28 17 28.56 17 0 17 C0 11.39 0 5.78 0 0 Z " fill="#8CD9E1" transform="translate(389,312)"/>
<path d="M0 0 C7.00725818 3.19314637 12.7379096 6.54222545 16.28515625 13.63671875 C17.21247674 22.7553702 14.38665513 32.98447042 9.28515625 40.63671875 C1.63804846 39.83176004 -5.15319867 36.38339952 -12.02734375 33.13671875 C-17.25675275 30.69034286 -22.57404192 29.15266463 -28.16015625 27.7265625 C-30.71484375 26.63671875 -30.71484375 26.63671875 -31.71484375 24.91015625 C-31.71484375 17.08701429 -26.74924803 8.40786511 -21.71484375 2.63671875 C-15.47302839 -3.30061782 -7.69161785 -2.82268626 0 0 Z " fill="#101748" transform="translate(119.71484375,321.36328125)"/>
<path d="M0 0 C7.35186855 4.0796496 12.18773718 9.18821153 14.875 17.25 C15.6633498 23.80234997 14.76421523 28.88011907 10.875 34.25 C2.19398231 44.17116308 2.19398231 44.17116308 -3.125 45.25 C-12.97396612 34.95491979 -22.61111856 24.69789597 -31.125 13.25 C-11.70427623 -5.52336631 -11.70427623 -5.52336631 0 0 Z " fill="#0F1645" transform="translate(209.125,184.75)"/>
<path d="M0 0 C27.72 0 55.44 0 84 0 C84 4.62 84 9.24 84 14 C56.28 14 28.56 14 0 14 C0 9.38 0 4.76 0 0 Z " fill="#90DCE3" transform="translate(389,284)"/>
<path d="M0 0 C27.72 0 55.44 0 84 0 C84 4.62 84 9.24 84 14 C56.28 14 28.56 14 0 14 C0 9.38 0 4.76 0 0 Z " fill="#91DEE5" transform="translate(389,255)"/>
<path d="M0 0 C4.65254975 0.66054719 9.04054831 1.79955208 13.5 3.25 C14.13808594 3.44207031 14.77617188 3.63414063 15.43359375 3.83203125 C20.31812967 5.42025458 23.37045393 7.4797776 27 11 C28.20643566 14.61930698 28.32268559 17.19231005 28 21 C25.72430013 25.38282939 23.47300432 27.88120848 19 30 C18.34 30 17.68 30 17 30 C17.433125 31.39412109 17.433125 31.39412109 17.875 32.81640625 C18.24625 34.05261719 18.6175 35.28882813 19 36.5625 C19.556875 38.38974609 19.556875 38.38974609 20.125 40.25390625 C20.99514943 43.97923349 21.15688404 47.19065949 21 51 C18.36 50.34 15.72 49.68 13 49 C12.32749476 46.41806023 11.66182099 43.83467929 11 41.25 C10.71382812 40.15558594 10.71382812 40.15558594 10.421875 39.0390625 C9.53484036 35.55428354 9 32.61876278 9 29 C6.36 28.67 3.72 28.34 1 28 C0.87882813 28.58007812 0.75765625 29.16015625 0.6328125 29.7578125 C-0.33735474 34.28028442 -1.43397783 38.63750966 -3 43 C-5.31 43 -7.62 43 -10 43 C-9.65813177 35.82076714 -8.11490177 29.5226703 -6.02001953 22.70166016 C-3.72092707 15.20346475 -1.8364118 7.62264787 0 0 Z " fill="#10163E" transform="translate(521,103)"/>
<path d="M0 0 C3.3125 1.8125 3.3125 1.8125 6 4 C6.5465625 4.4434375 7.093125 4.886875 7.65625 5.34375 C9.44668468 7.55056484 9.30930224 8.88604847 9.1875 11.6875 C9.14689453 12.89986328 9.14689453 12.89986328 9.10546875 14.13671875 C9.05326172 15.05904297 9.05326172 15.05904297 9 16 C15.31972924 17.19656638 21.60794144 18.27637073 28 19 C26.92598892 21.91517292 26.22189824 23.77810176 24 26 C22.09228516 25.96411133 22.09228516 25.96411133 19.7890625 25.58203125 C18.95632812 25.46279297 18.12359375 25.34355469 17.265625 25.22070312 C15.51102381 24.9494667 13.75831483 24.66568094 12.0078125 24.36914062 C9.58736681 24.03483524 7.43454435 23.7741557 5 24 C2.33171368 26.25936865 2.33171368 26.25936865 1 29 C2.60198888 30.46072532 4.20667116 31.91849716 5.8125 33.375 C6.70582031 34.18710937 7.59914062 34.99921875 8.51953125 35.8359375 C10.99632674 38.09072907 10.99632674 38.09072907 14 40 C14 40.66 14 41.32 14 42 C12.04072937 43.7143618 10.04119788 45.38405168 8 47 C7.40574219 46.45472656 6.81148437 45.90945313 6.19921875 45.34765625 C0.88876808 40.51621979 -4.52625995 35.8692051 -10.10546875 31.3515625 C-13.3212062 28.73904705 -16.50728591 26.09303071 -19.6875 23.4375 C-20.21714355 22.99543213 -20.74678711 22.55336426 -21.29248047 22.09790039 C-22.52867134 21.06568718 -23.76439054 20.03290913 -25 19 C-23.29581721 14.70249557 -20.17517339 11.69123705 -17.0625 8.375 C-16.25522461 7.49714844 -16.25522461 7.49714844 -15.43164062 6.6015625 C-10.74452512 1.56190194 -7.26073421 -1.14136542 0 0 Z " fill="#101645" transform="translate(166,223)"/>
<path d="M0 0 C6.69456641 18.3622393 6.69456641 18.3622393 3.8125 26.25 C1.68513679 29.4777235 0.42632321 31.14407493 -3 33 C-8.39556549 33.6413748 -13.22165353 33.81079204 -18 31 C-18.51949219 31.53109375 -19.03898438 32.0621875 -19.57421875 32.609375 C-27.14730878 40.28045326 -27.14730878 40.28045326 -31 43 C-31.66 43 -32.32 43 -33 43 C-34.25664978 40.09399739 -35 38.20395416 -35 35 C-32.62890625 32.7734375 -32.62890625 32.7734375 -29.5625 30.375 C-28.55316406 29.57835937 -27.54382813 28.78171875 -26.50390625 27.9609375 C-25.67761719 27.31382812 -24.85132813 26.66671875 -24 26 C-22.76732652 24.99163938 -22.76732652 24.99163938 -22.90234375 22.93359375 C-22.91394531 22.10988281 -22.92554688 21.28617187 -22.9375 20.4375 C-22.94652344 19.61121094 -22.95554687 18.78492188 -22.96484375 17.93359375 C-22.97644531 17.29550781 -22.98804688 16.65742188 -23 16 C-23.81984375 16.28875 -24.6396875 16.5775 -25.484375 16.875 C-27.10085938 17.431875 -27.10085938 17.431875 -28.75 18 C-29.81734375 18.37125 -30.8846875 18.7425 -31.984375 19.125 C-35 20 -35 20 -39 20 C-39.33 17.69 -39.66 15.38 -40 13 C-34.00432784 10.08737373 -27.94922302 7.97244101 -21.5625 6.08203125 C-16.36849172 4.50446514 -11.24807307 2.72386721 -6.1171875 0.953125 C-3 0 -3 0 0 0 Z " fill="#101646" transform="translate(780,341)"/>
<path d="M0 0 C3.1875 -0.42578125 3.1875 -0.42578125 7 0 C9.09466777 2.30974526 10.4637034 4.16947384 12 6.8125 C12.42007324 7.48869385 12.84014648 8.1648877 13.27294922 8.86157227 C14.12542538 10.23706285 14.96780464 11.61886409 15.79980469 13.00683594 C17.51566759 15.85636903 19.32226911 18.64217234 21.125 21.4375 C22.07375 22.943125 23.0225 24.44875 24 26 C24.33 17.42 24.66 8.84 25 0 C27.31 0 29.62 0 32 0 C32.33 14.19 32.66 28.38 33 43 C30.36 43 27.72 43 25 43 C22.75 40.61328125 22.75 40.61328125 21 37.3125 C20.34466202 36.12709951 19.68838206 34.94221938 19.03125 33.7578125 C18.70253906 33.14196289 18.37382812 32.52611328 18.03515625 31.89160156 C16.31435934 28.74708872 14.39842403 25.72669859 12.5 22.6875 C11.345 20.810625 10.19 18.93375 9 17 C9 25.91 9 34.82 9 44 C6.36 44 3.72 44 1 44 C0.02039651 29.3234406 -0.11707333 14.7062117 0 0 Z " fill="#121844" transform="translate(410,93)"/>
<path d="M0 0 C5.79181829 0.06642782 11.04825528 1.54432741 16.58984375 3.1171875 C23.74222396 5.09843 30.85010079 6.89885507 38.15234375 8.2421875 C37.82234375 10.8821875 37.49234375 13.5221875 37.15234375 16.2421875 C36.17136719 16.54511719 35.19039062 16.84804688 34.1796875 17.16015625 C24.79567916 20.06924566 15.46075243 23.09926216 6.15234375 26.2421875 C13.66534439 28.05984894 21.14407548 29.65815759 28.7890625 30.8125 C31.15234375 31.2421875 31.15234375 31.2421875 33.15234375 32.2421875 C33.15234375 34.5521875 33.15234375 36.8621875 33.15234375 39.2421875 C18.84417413 37.98860164 5.08272527 34.63229637 -8.84765625 31.2421875 C-8.84765625 28.6021875 -8.84765625 25.9621875 -8.84765625 23.2421875 C0.28799416 19.34002527 9.71829263 16.32521074 19.15234375 13.2421875 C19.15234375 12.9121875 19.15234375 12.5821875 19.15234375 12.2421875 C7.27234375 9.2721875 7.27234375 9.2721875 -4.84765625 6.2421875 C-4.84765625 0.30513166 -4.84765625 0.30513166 0 0 Z " fill="#101748" transform="translate(85.84765625,374.7578125)"/>
<path d="M0 0 C0 2.31 0 4.62 0 7 C-3.63 8.32 -7.26 9.64 -11 11 C-11.33 15.95 -11.66 20.9 -12 26 C-10.02 26.33 -8.04 26.66 -6 27 C-4.31624835 27.62225605 -2.64232772 28.27544365 -1 29 C-1 31.31 -1 33.62 -1 36 C-7.02816427 35.47728756 -11.92887939 34.12131932 -17.5 31.8125 C-19.07119238 31.17993989 -20.64281719 30.54845294 -22.21484375 29.91796875 C-23.00487793 29.59876465 -23.79491211 29.27956055 -24.60888672 28.95068359 C-29.08588452 27.17067242 -33.61216697 25.52109048 -38.13671875 23.86645508 C-42.89346917 22.10653083 -42.89346917 22.10653083 -44 21 C-44.14115161 18.32941149 -44.04247107 15.67567762 -44 13 C-42.80375 12.608125 -41.6075 12.21625 -40.375 11.8125 C-36.38800623 10.48971235 -32.44459696 9.06892291 -28.5 7.625 C-23.00115836 5.65428224 -17.47222583 3.8582599 -11.875 2.1875 C-11.15248047 1.96852051 -10.42996094 1.74954102 -9.68554688 1.52392578 C-6.27800723 0.52563572 -3.58476889 0 0 0 Z " fill="#111844" transform="translate(117,430)"/>
<path d="M0 0 C5.43665432 0.58908918 10.77586081 1.69254766 16.125 2.8125 C16.95596191 2.98628174 17.78692383 3.16006348 18.64306641 3.33911133 C24.66561678 4.6339771 30.48546381 6.23067469 36.3359375 8.16796875 C38.87920187 8.96227273 41.37973414 9.52835214 44 10 C42.125 14.75 42.125 14.75 41 17 C37.37 16.67 33.74 16.34 30 16 C27.69 19.63 25.38 23.26 23 27 C24.010625 28.2375 25.02125 29.475 26.0625 30.75 C29.03764974 34.3930405 29.03764974 34.3930405 28.87109375 37.078125 C27.89779235 39.22549849 26.76927944 40.46149614 25 42 C19.65462754 36.12556337 14.72885555 29.95595969 9.875 23.67578125 C7.96642259 21.21097118 6.00908139 18.80145793 4 16.41796875 C3.52731689 15.84328857 3.05463379 15.2686084 2.56762695 14.67651367 C1.66813309 13.5838506 0.75313936 12.50370979 -0.17895508 11.4387207 C-1.39453125 9.9375 -1.39453125 9.9375 -3 7 C-1.97481481 1.97481481 -1.97481481 1.97481481 0 0 Z " fill="#111745" transform="translate(120,273)"/>
<path d="M0 0 C2.31 0.66 4.62 1.32 7 2 C6.28726328 17.38528224 4.58968955 32.68633965 3 48 C-1.75 47.125 -1.75 47.125 -4 46 C-3.67 41.71 -3.34 37.42 -3 33 C-4.381875 32.54625 -5.76375 32.0925 -7.1875 31.625 C-10.50699909 30.52024557 -13.77199601 29.35367909 -17 28 C-17.54527344 28.77537109 -17.54527344 28.77537109 -18.1015625 29.56640625 C-19.63505024 31.57566839 -21.08800359 33.34322483 -23 35 C-26.28130534 35 -28.10437638 34.44781181 -31 33 C-29.70280076 30.14220983 -28.3363174 28.08991464 -26.11083984 25.88378906 C-25.5303891 25.30348938 -24.94993835 24.7231897 -24.35189819 24.12530518 C-23.72788116 23.51161072 -23.10386414 22.89791626 -22.4609375 22.265625 C-21.82008209 21.62759949 -21.17922668 20.98957397 -20.51895142 20.33221436 C-18.47562179 18.30005931 -16.42544018 16.27497782 -14.375 14.25 C-12.9865214 12.8715547 -11.5984951 11.49265364 -10.2109375 10.11328125 C-6.81251303 6.73688106 -3.40792746 3.36680712 0 0 Z " fill="#0E1540" transform="translate(587,127)"/>
<path d="M0 0 C13.365 1.485 13.365 1.485 27 3 C27 5.31 27 7.62 27 10 C20.00694361 10.26781918 13.82453765 9.55989432 7 8 C7 11.96 7 15.92 7 20 C12.61 20.33 18.22 20.66 24 21 C23.67 23.31 23.34 25.62 23 28 C16.67155983 28.23438667 11.18617348 27.37470522 5 26 C4.67 30.29 4.34 34.58 4 39 C10.93 39.66 17.86 40.32 25 41 C25 43.31 25 45.62 25 48 C15.19122858 47.55837285 5.66368187 46.85315189 -4 45 C-4.27276831 34.4444346 -3.52660399 24.50632797 -2 14.0625 C-1.80635152 12.68567878 -1.61363957 11.3087255 -1.421875 9.93164062 C-0.95705503 6.61979831 -0.47985261 3.30969766 0 0 Z " fill="#151B46" transform="translate(468,94)"/>
<path d="M0 0 C4.86039337 2.01030031 7.03330255 10.2903405 8.91601562 14.79248047 C9.47289062 15.86498047 10.02976562 16.93748047 10.60351562 18.04248047 C11.91601562 20.79248047 11.91601562 20.79248047 11.91601562 23.79248047 C8.94601562 24.28748047 8.94601562 24.28748047 5.91601562 24.79248047 C3.60601563 20.17248047 1.29601562 15.55248047 -1.08398438 10.79248047 C-6.52898438 12.27748047 -6.52898438 12.27748047 -12.08398438 13.79248047 C-11.57867188 14.85208984 -11.07335937 15.91169922 -10.55273438 17.00341797 C-9.89628306 18.3913436 -9.24004404 19.77936966 -8.58398438 21.16748047 C-8.25011719 21.86615234 -7.91625 22.56482422 -7.57226562 23.28466797 C-5.08398438 28.56591797 -5.08398438 28.56591797 -5.08398438 30.79248047 C-6.73398437 31.45248047 -8.38398437 32.11248047 -10.08398438 32.79248047 C-14.04398438 25.86248047 -14.04398438 25.86248047 -18.08398438 18.79248047 C-23.27392251 20.51439542 -23.27392251 20.51439542 -28.08398438 22.79248047 C-26.39238417 27.20328848 -24.30359828 31.31124939 -22.10742188 35.48779297 C-21.08398438 37.79248047 -21.08398438 37.79248047 -21.08398438 40.79248047 C-23.06398438 41.45248047 -25.04398438 42.11248047 -27.08398438 42.79248047 C-28.71659267 39.75483958 -30.33867545 36.71169723 -31.95898438 33.66748047 C-32.41917969 32.81154297 -32.879375 31.95560547 -33.35351562 31.07373047 C-35.6637403 26.72113325 -37.72514871 22.55621469 -39.08398438 17.79248047 C-38.30873413 17.45422241 -38.30873413 17.45422241 -37.51782227 17.10913086 C-27.26813332 12.61746525 -17.17504882 8.036873 -7.46704102 2.44897461 C-2.60738207 -0.25963856 -2.60738207 -0.25963856 0 0 Z " fill="#101647" transform="translate(759.083984375,291.20751953125)"/>
<path d="M0 0 C2.31 0 4.62 0 7 0 C7.72124677 3.8394881 8.43292619 7.6806212 9.13623047 11.5234375 C9.4934578 13.46445259 9.85798981 15.40411876 10.22265625 17.34375 C13.4664071 35.1380404 13.4664071 35.1380404 9.31640625 41.45703125 C6.25287847 45.04781307 3.08615672 46.67930713 -1.46484375 47.37890625 C-5.67094945 47.57498035 -8.49690049 47.22359978 -12.375 45.5 C-20.5277652 37.73546172 -21.17285293 26.07501196 -22.125 15.4375 C-22.21136719 14.52419922 -22.29773438 13.61089844 -22.38671875 12.66992188 C-22.59620555 10.44703416 -22.80054684 8.22380651 -23 6 C-20.35261084 4.5393715 -19.10551666 4 -16 4 C-15.79636841 5.22517334 -15.79636841 5.22517334 -15.58862305 6.47509766 C-15.07628252 9.52919358 -14.55529591 12.58165657 -14.02856445 15.63330078 C-13.69276469 17.594256 -13.36681031 19.55688898 -13.04101562 21.51953125 C-12.82509766 22.76347656 -12.60917969 24.00742188 -12.38671875 25.2890625 C-12.09607544 27.00150146 -12.09607544 27.00150146 -11.79956055 28.74853516 C-10.90223935 32.39755004 -9.72554662 36.27445338 -7 39 C-3.45498461 39.40284266 -1.33511693 39.1497331 1.9375 37.6875 C4.28852673 34.62404093 4.27791833 34.06734357 4 30.375 C3.70385745 28.24449872 3.36403296 26.11995663 3 24 C2.74829041 22.4961619 2.49701704 20.99225075 2.24609375 19.48828125 C1.84949462 17.11303941 1.44704084 14.74014103 1.01757812 12.37060547 C0.27504916 8.1870217 -0.15615457 4.27048816 0 0 Z " fill="#0F1440" transform="translate(378,97)"/>
<path d="M0 0 C4.33758284 2.21224626 6.54479599 4.93126015 8.4375 9.375 C9.65029429 17.19078544 9.60108127 21.02066039 5.09375 27.53125 C4.7328125 28.0159375 4.371875 28.500625 4 29 C1.525 28.01 1.525 28.01 -1 27 C-0.67 25.824375 -0.34 24.64875 0 23.4375 C0.96651079 19.54384224 1.31589076 16.02760719 1 12 C0.34 11.01 -0.32 10.02 -1 9 C-4 8.58333333 -4 8.58333333 -7 9 C-10.25958775 12.25958775 -9.72255022 17.0822385 -10.03515625 21.52734375 C-10.51235812 26.68652618 -11.66471024 29.84686141 -15 34 C-17.98406244 36.34462049 -21.28780166 36.48042895 -25.0390625 36.3828125 C-28.45183246 35.71657454 -29.93333389 33.65714214 -32 31 C-32.598125 30.29875 -33.19625 29.5975 -33.8125 28.875 C-35.68896264 24.33198519 -35.56640315 19.84347307 -35 15 C-33.5 11.8125 -33.5 11.8125 -32 10 C-29.03 10.495 -29.03 10.495 -26 11 C-26.16113281 11.55429687 -26.32226562 12.10859375 -26.48828125 12.6796875 C-27.04795021 15.21742308 -27.1681178 17.52778553 -27.1875 20.125 C-27.20167969 20.99382813 -27.21585937 21.86265625 -27.23046875 22.7578125 C-27.21743605 25.20329726 -27.21743605 25.20329726 -25 27 C-22.41645782 27.16687448 -22.41645782 27.16687448 -20 27 C-18.88208364 21.89882826 -17.95734014 16.9722004 -17.6875 11.75 C-17.25635179 6.68001639 -15.65629747 4.47794149 -12 1 C-8.23198163 -0.88400918 -4.09368742 -0.63638788 0 0 Z " fill="#0F1642" transform="translate(121,532)"/>
<path d="M0 0 C13.65383148 2.39099353 26.81143025 6.82076491 40 11 C39.731875 12.19625 39.46375 13.3925 39.1875 14.625 C38.51343218 17.63904611 37.86353831 20.65585158 37.234375 23.6796875 C36.97140625 24.94039062 36.7084375 26.20109375 36.4375 27.5 C36.18871094 28.7065625 35.93992187 29.913125 35.68359375 31.15625 C35 34 35 34 34 35 C32.33382885 35.04063832 30.66611905 35.042721 29 35 C27.59783375 30.38784308 28.53725264 27.22769598 29.9375 22.6875 C30.50791016 20.80611328 30.50791016 20.80611328 31.08984375 18.88671875 C31.39019531 17.93410156 31.69054687 16.98148438 32 16 C30.906875 15.855625 29.81375 15.71125 28.6875 15.5625 C25 15 25 15 22 14 C21.87882813 14.83144531 21.75765625 15.66289063 21.6328125 16.51953125 C21.46523438 17.60621094 21.29765625 18.69289063 21.125 19.8125 C20.96257813 20.89144531 20.80015625 21.97039063 20.6328125 23.08203125 C20 26 20 26 18 29 C15.375 29.1875 15.375 29.1875 13 29 C11.81405943 24.76674194 12.28130611 21.89604576 13.4375 17.6875 C13.86869141 16.08455078 13.86869141 16.08455078 14.30859375 14.44921875 C14.53675781 13.64097656 14.76492188 12.83273437 15 12 C14.0925 11.87625 13.185 11.7525 12.25 11.625 C9.41029677 11.07890323 7.47409409 10.42736197 5 9 C4.72285156 10.21558594 4.44570313 11.43117188 4.16015625 12.68359375 C3.79446102 14.26827307 3.42856525 15.85290612 3.0625 17.4375 C2.88009766 18.23994141 2.69769531 19.04238281 2.50976562 19.86914062 C1.11328125 25.88671875 1.11328125 25.88671875 0 27 C-2.5 27.125 -2.5 27.125 -5 27 C-6 26 -6 26 -6.0546875 24.27734375 C-5.40270534 15.78740215 -2.69646271 8.01973781 0 0 Z " fill="#141B49" transform="translate(746,532)"/>
<path d="M0 0 C3.42146956 3.11042687 5.96677625 6.20705394 7.75 10.5 C7.67859991 14.35560463 7.47658883 15.77341117 4.75 18.5 C3.43 18.17 2.11 17.84 0.75 17.5 C0.09 14.2 -0.57 10.9 -1.25 7.5 C-5.74142717 6.89812631 -5.74142717 6.89812631 -10.25 6.5 C-11.62768644 7.65568119 -11.62768644 7.65568119 -11.4375 10.8125 C-11.50883998 14.31562117 -11.50883998 14.31562117 -10.26171875 16.45703125 C-8.49892465 20.01665023 -8.69844678 23.62567496 -9.25 27.5 C-11.31671578 31.485809 -13.46370834 34.11907065 -17.25 36.5 C-21.83145358 37.3268965 -25.93741368 37.20004604 -30.0625 35 C-33.99411802 30.50672226 -36.95948686 26.71516273 -37.75 20.6875 C-37.25 17.5 -37.25 17.5 -35.9375 15.5625 C-34.25 14.5 -34.25 14.5 -31.25 14.5 C-31.15203125 15.09167969 -31.0540625 15.68335938 -30.953125 16.29296875 C-30.02028597 21.2225405 -29.25658943 25.14312778 -25.25 28.5 C-21.58200185 28.91771804 -21.58200185 28.91771804 -18.25 28.5 C-18.19552953 27.08376784 -18.15699492 25.66691809 -18.125 24.25 C-18.10179687 23.46109375 -18.07859375 22.6721875 -18.0546875 21.859375 C-18.27010652 19.25711323 -19.07919146 17.80573023 -20.25 15.5 C-20.89010706 11.41679077 -21.18323987 7.29110268 -19.234375 3.55078125 C-14.29617625 -2.592219 -6.89609656 -3.1828138 0 0 Z " fill="#101541" transform="translate(736.25,253.5)"/>
<path d="M0 0 C2.9375 2.4375 2.9375 2.4375 5 5 C5.598125 5.7425 6.19625 6.485 6.8125 7.25 C9.09267629 12.53040825 8.52020336 17.35725253 6.8125 22.75 C4.89897075 26.18115589 3.02734899 28.50243708 0 31 C-0.99 31 -1.98 31 -3 31 C-6 27.66666667 -6 27.66666667 -6 25 C-4.34997172 23.64613064 -2.6825613 22.31321858 -1 21 C0.49498913 18.01002175 0.11577446 15.29957225 0 12 C-0.65604893 8.93434552 -0.65604893 8.93434552 -2.8125 7.9375 C-3.534375 7.628125 -4.25625 7.31875 -5 7 C-5.58265625 6.65710938 -6.1653125 6.31421875 -6.765625 5.9609375 C-9.59587158 4.74373355 -11.86293416 4.6991314 -14.9375 4.6875 C-15.95714844 4.67074219 -16.97679687 4.65398437 -18.02734375 4.63671875 C-21.40627814 5.04965029 -23.27384059 5.99561446 -26 8 C-28.41647749 12.83295499 -27.36483465 19.65467221 -26 24.6875 C-25.67 25.450625 -25.34 26.21375 -25 27 C-26.98 27.33 -28.96 27.66 -31 28 C-34.91266263 23.97800148 -35.74046249 20.6458274 -35.6875 15.1875 C-35.68532471 14.47770996 -35.68314941 13.76791992 -35.6809082 13.03662109 C-35.44647592 7.31699881 -33.93858658 4.22978955 -29.82421875 0.3828125 C-20.81578369 -6.44585134 -9.55929848 -5.15632913 0 0 Z " fill="#111A49" transform="translate(787,486)"/>
<path d="M0 0 C0.33 1.98 0.66 3.96 1 6 C-4.60526694 8.32330984 -10.12524968 10.46745644 -16 12 C-15.7834375 12.54269531 -15.566875 13.08539063 -15.34375 13.64453125 C-15.0653125 14.35996094 -14.786875 15.07539062 -14.5 15.8125 C-14.2215625 16.52019531 -13.943125 17.22789063 -13.65625 17.95703125 C-13 20 -13 20 -13 23 C-12.27554687 22.71125 -11.55109375 22.4225 -10.8046875 22.125 C-1.20210896 18.43760984 -1.20210896 18.43760984 4 19 C4.33 20.98 4.66 22.96 5 25 C3.06441401 25.67220351 1.12645628 26.33758077 -0.8125 27 C-1.89144531 27.37125 -2.97039062 27.7425 -4.08203125 28.125 C-7 29 -7 29 -10 29 C-9.6390625 29.95261719 -9.278125 30.90523437 -8.90625 31.88671875 C-8.43707589 33.15348884 -7.96834948 34.4204248 -7.5 35.6875 C-7.26152344 36.31333984 -7.02304687 36.93917969 -6.77734375 37.58398438 C-5.4587275 41.18192299 -4.70670765 44.16520253 -5 48 C-8.465 48.495 -8.465 48.495 -12 49 C-14.82894006 42.49231971 -17.38478994 36.06307259 -19.3203125 29.234375 C-20.29074259 26.04422551 -21.66740376 23.05386638 -23 20 C-26 11.84931507 -26 11.84931507 -26 8 C-23.50206261 7.03599018 -21.00186341 6.07872453 -18.5 5.125 C-17.80390625 4.85558594 -17.1078125 4.58617188 -16.390625 4.30859375 C-5.04115854 0 -5.04115854 0 0 0 Z " fill="#111748" transform="translate(331,108)"/>
<path d="M0 0 C0.99 0 1.98 0 3 0 C3 2.64 3 5.28 3 8 C2.23429688 8.32871094 2.23429688 8.32871094 1.453125 8.6640625 C-3.14124178 10.66798844 -7.61192646 12.8177141 -12.0625 15.125 C-16.70048154 17.47665261 -20.90311808 19.0198304 -26 20 C-26 20.66 -26 21.32 -26 22 C-24.85144531 22.09796875 -23.70289063 22.1959375 -22.51953125 22.296875 C-12.85964983 23.19968714 -4.16122661 24.66570198 5 28 C5 30.31 5 32.62 5 35 C0.32508353 34.62897488 -3.8409721 34.1821429 -8.25 32.5625 C-12.9885241 30.85365943 -17.71701242 30.23043879 -22.69140625 29.5390625 C-27.57274675 28.74375555 -32.26874898 27.42221975 -37 26 C-37 23.36 -37 20.72 -37 18 C-27.53412874 13.1216841 -17.92265219 8.63835535 -8.20263672 4.28955078 C-7.28369629 3.87688965 -6.36475586 3.46422852 -5.41796875 3.0390625 C-4.59063232 2.66990723 -3.7632959 2.30075195 -2.91088867 1.92041016 C-1.0376097 1.14767937 -1.0376097 1.14767937 0 0 Z " fill="#111749" transform="translate(790,393)"/>
<path d="M0 0 C5.56265896 1.71229935 10.63816712 4.11992001 14 9 C14.92441748 14.31048342 14.03826015 19.03174089 12 24 C5.86024169 23.65246651 1.3572628 22.00204322 -4.16796875 19.34375 C-8.36263994 17.35345084 -12.67369866 15.67984369 -17 14 C-16.59579069 8.34106967 -14.79663015 5.97742206 -11 2 C-7.24215567 -0.50522955 -4.34673344 -0.61020002 0 0 Z " fill="#F5F6F7" transform="translate(114,328)"/>
<path d="M0 0 C1.28317892 3.84953676 1.06643637 6.94738135 1 11 C2.03833984 10.70996094 2.03833984 10.70996094 3.09765625 10.4140625 C14.22433713 7.45281146 25.46407012 5.59523053 37 6 C37 8.31 37 10.62 37 13 C33.02381805 13.84801158 29.04365881 14.67569739 25.0625 15.5 C23.94552734 15.73847656 22.82855469 15.97695313 21.67773438 16.22265625 C15.31197515 17.52941034 9.49744858 18.27560757 3 18 C3 21.96 3 25.92 3 30 C1.02 30 -0.96 30 -3 30 C-4.97298648 20.33360714 -6.50940538 10.87956066 -7 1 C-4 0 -4 0 0 0 Z " fill="#111A48" transform="translate(82,488)"/>
<path d="M0 0 C6.40904306 3.9808446 10.95808088 9.54816376 12.6875 16.9375 C11.62498353 21.67052793 8.56424692 24.80209965 5 28 C4.01 28.33 3.02 28.66 2 29 C1.45472656 28.31035156 0.90945312 27.62070313 0.34765625 26.91015625 C-4.26446881 21.16273887 -8.9659445 15.90777726 -14.4453125 10.97265625 C-16 9 -16 9 -15.93359375 6.91796875 C-13.05934564 1.01313268 -6.21604737 -1.85889416 0 0 Z " fill="#F7F8F8" transform="translate(205,191)"/>
<path d="M0 0 C3.37462715 0.54723683 5.08235 1.0549 8 3 C6.18488215 6.83191546 3.99808339 10.43481613 1.8125 14.0625 C1.22009521 15.0529834 1.22009521 15.0529834 0.61572266 16.06347656 C-2.40338204 21.08600325 -5.58114661 25.9856817 -8.8828125 30.828125 C-9.43582031 31.90320313 -9.43582031 31.90320313 -10 33 C-8.68717086 36.93848742 -7.02932952 37.4260641 -3.5 39.5 C1.88888889 42.66666667 1.88888889 42.66666667 3 46 C1.68 47.32 0.36 48.64 -1 50 C-7.93 45.38 -14.86 40.76 -22 36 C-15.26833527 24.78055879 -15.26833527 24.78055879 -12.16796875 20.09765625 C-11.51505859 19.10572266 -10.86214844 18.11378906 -10.18945312 17.09179688 C-8.836303 15.04424971 -7.48210857 12.99739238 -6.12695312 10.95117188 C-5.48048828 9.96826172 -4.83402344 8.98535156 -4.16796875 7.97265625 C-3.58297607 7.08843994 -2.9979834 6.20422363 -2.39526367 5.29321289 C-0.86752679 2.9741737 -0.86752679 2.9741737 0 0 Z " fill="#111640" transform="translate(626,149)"/>
<path d="M0 0 C13.2 0 26.4 0 40 0 C40 2.64 40 5.28 40 8 C26.8 8 13.6 8 0 8 C0 5.36 0 2.72 0 0 Z " fill="#1B274F" transform="translate(756,454)"/>
<path d="M0 0 C5.04196983 0.50419698 10.24504438 1.24504438 14 5 C14.39152344 8.52371092 14.41041808 10.37616451 12.4375 13.375 C9.08261653 15.61158898 6.97222282 15.4109196 3 15 C-0.4375 14 -0.4375 14 -3 13 C-2.52060632 8.28596212 -2.03165952 4.33420699 0 0 Z " fill="#ECEDF0" transform="translate(527,112)"/>
<path d="M0 0 C1.875 1.125 1.875 1.125 3 3 C3.625 5.6875 3.625 5.6875 3 9 C0.89803158 11.90197132 -1.47524433 14.46236292 -4 17 C-4.55429688 16.57847656 -5.10859375 16.15695313 -5.6796875 15.72265625 C-6.40414062 15.17480469 -7.12859375 14.62695312 -7.875 14.0625 C-8.95394531 13.24458984 -8.95394531 13.24458984 -10.0546875 12.41015625 C-11.94357079 10.96035376 -11.94357079 10.96035376 -14 10 C-12.07301823 3.25556382 -7.2104844 -1.28186389 0 0 Z " fill="#F5F5F6" transform="translate(165,231)"/>
<path d="M0 0 C2.62404613 3.93606919 2.36302306 7.42590939 2 12 C1 14 1 14 -1 15 C-3.71885319 15.23059307 -6.25991592 15.13475823 -9 15 C-13.07877462 7.9452954 -13.07877462 7.9452954 -12.75 4 C-12.5025 3.34 -12.255 2.68 -12 2 C-7.82262526 0.40861915 -4.46839215 -0.21278058 0 0 Z " fill="#F0F0F2" transform="translate(776,351)"/>
<path d="M0 0 C0 3.63 0 7.26 0 11 C-10.71428571 7.85714286 -10.71428571 7.85714286 -15 6 C-15 5.34 -15 4.68 -15 4 C-12.87607494 3.3299166 -10.75082476 2.66403203 -8.625 2 C-7.44164063 1.62875 -6.25828125 1.2575 -5.0390625 0.875 C-2 0 -2 0 0 0 Z " fill="#D7D9DF" transform="translate(99,442)"/>
<path d="M0 0 C5.28 1.32 10.56 2.64 16 4 C14.22157001 8.44607497 13.35585467 9.9797308 10 13 C8.33036458 11.02327092 6.66419927 9.0437967 5 7.0625 C4.52304688 6.49853516 4.04609375 5.93457031 3.5546875 5.35351562 C0 1.11328125 0 1.11328125 0 0 Z " fill="#E8EAEE" transform="translate(127,281)"/>
<path d="M0 0 C0.09038099 5.15171623 -0.15318867 9.91913204 -1 15 C-4.82097239 14.46930939 -7.06171403 13.50298434 -10 11 C-8.59698853 7.81326038 -6.92234929 5.67778594 -4.4375 3.25 C-3.81746094 2.63640625 -3.19742188 2.0228125 -2.55859375 1.390625 C-1 0 -1 0 0 0 Z " fill="#E2E4E8" transform="translate(586,138)"/>
<path d="M0 0 C0.33 0.99 0.66 1.98 1 3 C-1.76536151 5.83963775 -4.5405724 8.66923467 -7.32519531 11.48999023 C-8.73511441 12.9223772 -10.13713794 14.36252195 -11.5390625 15.80273438 C-12.42851563 16.70185547 -13.31796875 17.60097656 -14.234375 18.52734375 C-15.05131836 19.35999756 -15.86826172 20.19265137 -16.70996094 21.05053711 C-18.93070865 22.94101371 -20.15286698 23.63124482 -23 24 C-20.20501622 21.19971264 -17.40274967 18.40728819 -14.58984375 15.625 C-13.3723565 14.41670629 -12.15490926 13.20837228 -10.9375 12 C-10.32583984 11.39671875 -9.71417969 10.7934375 -9.08398438 10.171875 C-5.82422826 6.92973919 -2.78744812 3.67025588 0 0 Z " fill="#24346C" transform="translate(708,704)"/>
<path d="M0 0 C0 0.33 0 0.66 0 1 C-0.886875 1.20625 -1.77375 1.4125 -2.6875 1.625 C-7.30806999 3.54297245 -9.73914994 6.47829987 -12 11 C-12.66 10.67 -13.32 10.34 -14 10 C-12.00853052 3.02985683 -7.30253893 -0.86934987 0 0 Z " fill="#C9CBD3" transform="translate(165,231)"/>
<path d="M0 0 C2.475 0.99 2.475 0.99 5 2 C5 3.32 5 4.64 5 6 C2.03 5.505 2.03 5.505 -1 5 C-1 1 -1 1 0 0 Z " fill="#0A0E3D" transform="translate(615,187)"/>
<path d="M0 0 C0 0.99 0 1.98 0 3 C-1.4609375 4.38671875 -1.4609375 4.38671875 -3.375 5.6875 C-4.00148437 6.12449219 -4.62796875 6.56148437 -5.2734375 7.01171875 C-7 8 -7 8 -9 8 C-8.75390625 6.140625 -8.75390625 6.140625 -8 4 C-6.15234375 2.734375 -6.15234375 2.734375 -3.9375 1.75 C-2.83728516 1.24726563 -2.83728516 1.24726563 -1.71484375 0.734375 C-1.14894531 0.49203125 -0.58304688 0.2496875 0 0 Z " fill="#9BA2B3" transform="translate(227,130)"/>
<path d="M0 0 C2.16264785 2.16264785 2.82246387 2.98188578 3 6 C1.0625 8.25 1.0625 8.25 -1 10 C-1.99 9.67 -2.98 9.34 -4 9 C-3.525625 8.62875 -3.05125 8.2575 -2.5625 7.875 C-0.47794198 5.37353038 -0.35378509 3.18406582 0 0 Z " fill="#1A1F45" transform="translate(614,180)"/>
<path d="M0 0 C1 3 1 3 -0.125 5.625 C-2 8 -2 8 -4.6875 8.8125 C-5.450625 8.874375 -6.21375 8.93625 -7 9 C-6.02180976 7.68677212 -5.0424189 6.37443848 -4.0625 5.0625 C-3.51722656 4.33160156 -2.97195312 3.60070312 -2.41015625 2.84765625 C-1 1 -1 1 0 0 Z " fill="#2D3B6E" transform="translate(205,251)"/>
<path d="M0 0 C0.33 0.99 0.66 1.98 1 3 C-1.97 5.475 -1.97 5.475 -5 8 C-5.66 7.67 -6.32 7.34 -7 7 C-4.69 4.69 -2.38 2.38 0 0 Z " fill="#222F69" transform="translate(213,243)"/>
<path d="M0 0 C0.99 0.33 1.98 0.66 3 1 C2.34 2.32 1.68 3.64 1 5 C-0.32 5 -1.64 5 -3 5 C-1.125 1.125 -1.125 1.125 0 0 Z " fill="#91D4D7" transform="translate(382,363)"/>
<path d="M0 0 C0.66 0.33 1.32 0.66 2 1 C0.02 2.98 -1.96 4.96 -4 7 C-4.66 6.67 -5.32 6.34 -6 6 C-4 4 -2 2 0 0 Z " fill="#282F58" transform="translate(101,322)"/>
</svg>
